<?xml version="1.0" standalone="no"?>
<!DOCTYPE svg PUBLIC "-//W3C//DTD SVG 20010904//EN"
 "http://www.w3.org/TR/2001/REC-SVG-20010904/DTD/svg10.dtd">
<svg version="1.0" xmlns="http://www.w3.org/2000/svg"
 width="612.000000pt" height="407.000000pt" viewBox="0 0 612.000000 407.000000"
 preserveAspectRatio="xMidYMid meet">

<g transform="translate(0.000000,407.000000) scale(0.100000,-0.100000)"
fill="#000000" stroke="none">
<path d="M3602 2928 c-7 -7 -12 -29 -12 -50 0 -38 0 -38 40 -38 39 0 40 1 40
34 0 19 -3 41 -6 50 -7 19 -45 21 -62 4z"/>
<path d="M3407 2853 c-15 -14 -6 -48 20 -75 l27 -28 28 27 28 27 -27 28 c-25
26 -61 36 -76 21z"/>
<path d="M3786 2839 c-32 -25 -32 -26 -1 -64 l24 -29 30 32 c33 34 38 51 19
70 -18 18 -42 15 -72 -9z"/>
<path d="M3573 2740 c-34 -20 -63 -66 -63 -99 0 -11 -13 -33 -30 -49 -26 -27
-30 -38 -30 -86 0 -54 -1 -56 -26 -56 -15 0 -41 13 -61 30 l-34 30 -755 0
-756 0 -34 -34 -35 -35 3 -536 3 -537 35 -29 34 -29 153 0 153 0 0 40 0 39
-147 3 -148 3 -3 133 -3 132 748 -2 748 -3 3 -121 c2 -93 -1 -124 -11 -132 -9
-8 -105 -13 -298 -14 l-284 -3 -3 -37 -3 -38 450 0 451 0 0 40 0 40 -116 0
c-102 0 -115 2 -110 16 3 9 6 92 6 185 l0 169 440 0 440 0 0 -185 c0 -178 -1
-185 -20 -185 -17 0 -20 -7 -20 -40 l0 -40 60 0 60 0 0 328 c0 388 2 378 -100
430 -98 50 -129 80 -200 193 -72 114 -117 154 -197 174 l-48 12 -6 54 c-7 67
-14 84 -45 104 -15 10 -24 25 -24 43 -1 37 -20 69 -56 93 -37 24 -80 24 -121
-1z m91 -76 c30 -29 20 -44 -29 -44 -37 0 -45 3 -45 18 0 39 45 55 74 26z m71
-169 l0 -40 -102 -3 -103 -3 0 46 0 46 103 -3 102 -3 0 -40z m-426 -73 c21
-17 21 -22 19 -352 l-3 -335 -747 -3 -748 -2 0 344 c0 318 1 346 18 355 11 7
260 11 729 11 659 -1 713 -2 732 -18z m552 -63 c58 -20 92 -54 149 -149 63
-105 113 -155 208 -203 l67 -33 3 -67 3 -67 -441 0 -440 0 0 265 0 265 209 0
c129 0 221 -4 242 -11z"/>
<path d="M2476 2329 c-17 -13 -28 -34 -32 -59 -6 -35 -9 -38 -44 -44 -62 -10
-80 -42 -80 -141 0 -99 18 -131 80 -141 36 -6 39 -9 45 -45 10 -61 41 -79 136
-79 43 0 89 5 102 11 27 12 47 47 47 83 0 20 7 25 40 30 66 10 80 35 80 141 0
106 -14 131 -80 141 -33 5 -40 10 -40 30 0 36 -20 71 -47 83 -13 6 -59 11
-102 11 -64 0 -83 -4 -105 -21z m174 -119 l0 -60 60 0 60 0 0 -65 0 -65 -60 0
-60 0 0 -60 0 -60 -65 0 -65 0 0 60 0 60 -60 0 -60 0 0 65 0 65 60 0 60 0 0
60 0 60 65 0 65 0 0 -60z"/>
<path d="M2319 1542 c-124 -64 -157 -228 -68 -335 84 -102 236 -108 331 -13
86 86 80 240 -13 320 -73 62 -165 73 -250 28z m182 -75 c89 -59 88 -172 -2
-240 -89 -66 -219 7 -219 122 0 114 126 182 221 118z"/>
<path d="M3839 1543 c-74 -38 -111 -93 -117 -172 -5 -71 10 -121 51 -167 107
-123 296 -95 372 55 27 55 18 158 -20 213 -38 55 -120 98 -185 98 -31 0 -65
-9 -101 -27z m178 -74 c44 -27 63 -66 63 -128 0 -42 -5 -56 -31 -86 -117 -132
-314 10 -232 168 33 64 133 87 200 46z"/>
</g>
</svg>
